# xmcd CD database file
#
# Track frame offsets:
#	182
#	13267
#	25187
#	40245
#	54357
#	68387
#	82117
#	94737
#	108465
#	122137
#	135312
#	153397
#	172637
#	191370
#	208640
#	226067
#	244255
#	260062
#	278795
#	296185
#
# Disc length: 4192 seconds
#
# Revision: 0
# Processed by: cddbd v1.5PL3 Copyright (c) Steve Scherf et al.
# Submitted via: CDex 1.51
#
DISCID=10105e14
DTITLE=Louis Armstrong - The Complete Louis Armstrong With Clarence Williams Vol 2
DYEAR=1900
DGENRE=Jazz
TTITLE0=Coal Cart Blues
TTITLE1=Santa Claus Blues
TTITLE2=Santa Claus Blues
TTITLE3=Squeeze Me
TTITLE4=You Can't Shush Katie
TTITLE5=Perdido Street Blues
TTITLE6=2.19 Blues
TTITLE7=Down In Honky Tonk Town
TTITLE8=Down In Honky Tonk Town
TTITLE9=Coal Cart Blues
TTITLE10=Four Or Five Times
TTITLE11=Sweet Lorraine
TTITLE12=Lazy River
TTITLE13=China Boy
TTITLE14=China Boy
TTITLE15=If I Could Be With You
TTITLE16=That's A Plenty
TTITLE17=That's A Plenty
TTITLE18=Squeeze Me
TTITLE19=Sweet Sue Just You
EXTD=
EXTT0=
EXTT1=
EXTT2=
EXTT3=
EXTT4=
EXTT5=
EXTT6=
EXTT7=
EXTT8=
EXTT9=
EXTT10=
EXTT11=
EXTT12=
EXTT13=
EXTT14=
EXTT15=
EXTT16=
EXTT17=
EXTT18=
EXTT19=
PLAYORDER=
